<svg width="280" height="131" viewBox="0 0 280 131" fill="none" xmlns="http://www.w3.org/2000/svg">
<path d="M143.393 75.2591L5.10533 0.750664C2.41632 -0.698159 -0.931909 0.581501 -1.96917 3.45447L-23.8598 64.0862C-24.5727 66.0607 -23.9763 68.2703 -22.3666 69.6179L-12.7784 77.6451C-12.456 77.915 -12.1009 78.1431 -11.7215 78.3241L70.9602 117.765C71.9585 118.242 73.0866 118.373 74.1678 118.14L209.997 88.8244C210.976 88.613 211.997 88.7008 212.926 89.0763L313.603 129.776C318.197 131.633 322.404 126.394 319.599 122.31L301.238 95.5741C300.754 94.8698 300.098 94.3012 299.332 93.9225L213.481 51.4792C212.219 50.8555 210.753 50.7924 209.443 51.3053L147.586 75.5135C146.219 76.0487 144.685 75.9557 143.393 75.2591Z" fill="#E8E8E8"/>
</svg>
