<svg width="280" height="345" viewBox="0 0 280 345" fill="none" xmlns="http://www.w3.org/2000/svg">
<path d="M124.57 145.96L1.21077 289.251C0.429623 290.158 0 291.316 0 292.513V340C0 342.761 2.23857 345 5 345H12.9337C14.5733 345 16.1088 344.196 17.0429 342.849L126.172 185.421C127.975 182.82 131.71 182.527 133.896 184.814L200.778 254.783C203.372 257.497 207.92 256.491 209.127 252.936L292.757 6.60741C293.858 3.36474 291.447 0 288.022 0H281.606C279.577 0 277.75 1.22614 276.98 3.10349L200.782 188.982C199.544 192.001 195.795 193.045 193.175 191.101L131.339 145.208C129.234 143.645 126.28 143.974 124.57 145.96Z" fill="#E8E8E8"/>
</svg>
